<svg xmlns="http://www.w3.org/2000/svg" viewBox="0 0 512 512"><path fill="#336791" d="M155.1 71.3c0 0-48.6-47.5-68.7-.3C66.8 117.2 97.4 125 97.4 125s-23.7 7.9-29.6 34.2c-5.5 24.5 10.3 35.8 4.7 66.1-4.7 25-39 51.9-39 51.9S-3 325 50.8 387.9c35.6 41.6 96.6 28.5 96.6 28.5L127 496.5l82.7-25 15.3-70.8s93.4 3.7 122.9-44.2c27.1-44 14.2-108.3 14.2-108.3l69.9-4.2s-2.1-39-38.5-47.5c0 0 10-41.6-35.3-49.9 0 0 .5-36.8-54.8-49.4 0 0-46.9-10.6-96.1 40-20.4-3.4-52.1-13.4-52.1-65.9zM126.5 198c0 0 4.2-16.3 33.7-11.6 0 0-14.2 32.7-18.4 34.3-5.5 2.1-15.3-22.7-15.3-22.7zm285.3 43.1s10.5 4.7 13.9 19.8-3.9 29-3.9 29-36.9-9.2-10-48.8z"/></svg>
